<?xml version="1.0" encoding="UTF-8" standalone="no"?>
<!-- Created with Inkscape (http://www.inkscape.org/) -->

<svg
   version="1.1"
   id="svg1"
   width="682.66669"
   height="682.66669"
   viewBox="0 0 682.66669 682.66669"
   sodipodi:docname="bot.svg"
   inkscape:version="1.4 (e7c3feb100, 2024-10-09)"
   xmlns:inkscape="http://www.inkscape.org/namespaces/inkscape"
   xmlns:sodipodi="http://sodipodi.sourceforge.net/DTD/sodipodi-0.dtd"
   xmlns="http://www.w3.org/2000/svg"
   xmlns:svg="http://www.w3.org/2000/svg">
  <sodipodi:namedview
     id="namedview1"
     pagecolor="#ffffff"
     bordercolor="#000000"
     borderopacity="0.25"
     inkscape:showpageshadow="2"
     inkscape:pageopacity="0.0"
     inkscape:pagecheckerboard="0"
     inkscape:deskcolor="#d1d1d1"
     inkscape:zoom="1.0986328"
     inkscape:cx="341.33334"
     inkscape:cy="341.33334"
     inkscape:window-width="1920"
     inkscape:window-height="958"
     inkscape:window-x="0"
     inkscape:window-y="0"
     inkscape:window-maximized="1"
     inkscape:current-layer="svg1" />
  <defs
     id="defs1" />
  <path
     style="fill:#ffffff"
     d="m 205.33402,617.24123 c -1.83295,-0.77076 -4.73996,-2.71535 -6.46002,-4.3213 -6.6272,-6.18758 -6.87399,-7.79797 -6.87399,-44.8537 v -34.73288 h -5.75684 c -8.15434,0 -22.91985,-4.14449 -33.6991,-9.4589 -13.05284,-6.43535 -30.44079,-23.83239 -36.52199,-36.5411 -9.75138,-20.37878 -9.35541,-14.17466 -9.35541,-146.58074 0,-132.41801 -0.49681,-124.71051 9.38622,-145.61667 6.12094,-12.94797 23.46355,-30.02488 37.28045,-36.70928 18.61926,-9.00772 19.53323,-9.09332 97.08519,-9.09332 h 69.58148 l -0.0815,-3 c -0.0522,-1.92121 -2.05201,-4.4384 -5.56129,-7 -3.37609,-2.46439 -7.31181,-7.32717 -10.25186,-12.66667 -4.44246,-8.06809 -4.768,-9.44943 -4.71344,-20 0.0505,-9.767201 0.59325,-12.405342 3.92754,-19.090928 4.39803,-8.818486 9.71303,-13.988307 19.72974,-19.190823 5.94067,-3.08549 8.59777,-3.614347 18.28411,-3.639188 10.37848,-0.02662 12.04121,0.352649 19.73519,4.501555 9.36189,5.048313 13.40631,9.237934 18.60809,19.276124 2.98509,5.760513 3.53733,8.556399 3.58364,18.14326 0.0475,9.83734 -0.42772,12.25083 -3.60027,18.28411 -4.34701,8.26675 -10.81839,15.93575 -14.40876,17.07529 -1.62407,0.51546 -2.58455,2.02566 -2.58455,4.06378 v 3.24349 h 69.58148 c 77.60505,0 78.52289,0.0864 97.0531,9.13337 11.94133,5.83011 27.29288,19.74055 33.89953,30.71725 2.47703,4.11549 6.22018,11.98271 8.31812,17.48271 l 3.81444,10 v 124.66667 124.66667 l -4.18971,10.86167 c -12.08,31.31695 -40.13422,53.32403 -71.47696,56.06995 l -9,0.78848 v 34.94278 c 0,34.04201 -0.0773,35.0564 -3,39.35069 -5.15284,7.57108 -9.587,9.98644 -18.33333,9.98644 -8.43066,0 -12.69062,-2.18189 -17.91762,-9.17714 -2.59182,-3.46861 -2.77162,-5.73262 -3.1436,-39.58428 l -0.39455,-35.90525 H 341.33334 234.7891 l -0.39454,35.90525 c -0.37199,33.85166 -0.55178,36.11567 -3.1436,39.58428 -1.51198,2.02347 -4.31729,4.84989 -6.23402,6.28093 -4.04961,3.02348 -14.79965,4.19085 -19.68292,2.13742 z M 422.00001,444.27121 c 8.79634,-4.04034 18.47372,-13.72151 22.14001,-22.14868 2.40885,-5.53686 3.05594,-9.98647 3.50808,-24.12252 0.51577,-16.12552 0.3383,-17.75142 -2.54684,-23.33333 -3.33501,-6.45227 -11.85752,-12 -18.43458,-12 -6.44717,0 -14.97996,5.5452 -18.27499,11.87638 -2.55135,4.90222 -3.05834,7.94142 -3.05834,18.33333 v 12.45696 h -64.00001 -64 V 392.9492 c 0,-10.19121 -0.53123,-13.43761 -3,-18.33334 -8.09311,-16.04914 -31.28925,-14.83377 -37.70888,1.97578 -3.30208,8.64638 -2.28113,35.96827 1.67799,44.90491 5.39288,12.17296 17.90267,22.67793 29.89325,25.10255 3.19237,0.64553 37.60431,1.07481 76.47098,0.95397 70.66147,-0.21971 70.66716,-0.21995 77.33333,-3.28186 z M 265.32582,317.00001 c 4.18569,-2.13163 6.7761,-4.70096 8.94918,-8.87638 2.87232,-5.51895 3.05656,-7.38424 3.02906,-30.66667 -0.0255,-21.55841 -0.36301,-25.52545 -2.58915,-30.42941 -7.03973,-15.50784 -29.31089,-15.75532 -37.04824,-0.41169 -2.79317,5.53903 -2.99798,7.6533 -2.97071,30.66667 0.0249,21.01564 0.39262,25.51623 2.45536,30.05081 2.87731,6.32529 5.12019,8.36444 11.83605,10.76092 7.02305,2.50609 9.60881,2.33292 16.33845,-1.09425 z m 172.6674,-0.76514 c 2.20373,-1.26273 5.35679,-4.95928 7.00679,-8.21455 2.79104,-5.50642 3,-7.64391 3,-30.68698 0,-23.03403 -0.21006,-25.18485 -3,-30.71748 -5.66978,-11.24353 -18.93123,-14.68829 -30.18925,-7.84188 -8.01375,4.87345 -9.41497,10.6104 -9.44813,38.68298 -0.0275,23.28243 0.15674,25.14772 3.02906,30.66667 5.71321,10.97752 18.48943,14.47839 29.60153,8.11124 z"
     id="path1" />
</svg>
