<?xml version="1.0" encoding="UTF-8" standalone="no"?>
<!-- Created with Inkscape (http://www.inkscape.org/) -->

<svg
   version="1.1"
   id="svg1"
   width="512"
   height="512"
   viewBox="0 0 512 512"
   sodipodi:docname="code documentatio.svg"
   inkscape:version="1.4 (e7c3feb100, 2024-10-09)"
   xmlns:inkscape="http://www.inkscape.org/namespaces/inkscape"
   xmlns:sodipodi="http://sodipodi.sourceforge.net/DTD/sodipodi-0.dtd"
   xmlns="http://www.w3.org/2000/svg"
   xmlns:svg="http://www.w3.org/2000/svg">
  <sodipodi:namedview
     id="namedview1"
     pagecolor="#ffffff"
     bordercolor="#000000"
     borderopacity="0.25"
     inkscape:showpageshadow="2"
     inkscape:pageopacity="0.0"
     inkscape:pagecheckerboard="0"
     inkscape:deskcolor="#d1d1d1"
     inkscape:zoom="1.4570312"
     inkscape:cx="256"
     inkscape:cy="256"
     inkscape:window-width="1920"
     inkscape:window-height="958"
     inkscape:window-x="0"
     inkscape:window-y="0"
     inkscape:window-maximized="1"
     inkscape:current-layer="svg1" />
  <defs
     id="defs1" />
  <path
     style="fill:#ffffff;fill-opacity:1"
     d="M 359,432.03331 C 357.075,431.00024 347.10284,421.68263 336.83965,411.3275 321.60547,395.95686 317.98638,391.76557 317.1286,388.5 c -1.06616,-4.05889 -0.40809,-9.28174 1.64096,-13.02353 2.34239,-4.27744 37.8259,-38.4095 41.54641,-39.96402 12.05998,-5.03899 25.23321,7.83939 20.6343,20.17245 -0.57736,1.54831 -6.75823,8.55247 -13.73529,15.56481 l -12.68555,12.74971 12.13493,12.25029 c 15.91935,16.0707 17.51212,19.41493 13.45491,28.25029 -2.17688,4.74057 -4.41072,6.81091 -9.01849,8.3584 -4.72966,1.58842 -8.02176,1.36395 -12.10078,-0.82509 z m 64.27066,0.003 c -7.29774,-3.31279 -10.8689,-12.27528 -7.80911,-19.59841 0.94103,-2.2522 6.58258,-8.86161 13.76614,-16.12785 l 12.17167,-12.31177 -12.56656,-12.74907 c -13.30498,-13.49821 -15.6162,-17.29583 -14.30362,-23.50254 1.59814,-7.55704 5.99683,-11.75928 13.78617,-13.17046 6.50158,-1.17789 10.61664,1.77594 30.85063,22.14483 27.66514,27.84958 27.66501,26.72147 0.006,54.59871 -10.26969,10.35078 -20.34174,19.68828 -22.38233,20.75 -4.65137,2.42009 -8.13327,2.41148 -13.51918,-0.0334 z M 226,395.86047 C 185.75653,379.02573 141.2283,369.66491 95.5,368.42648 72.362225,367.79986 66.444952,366.83975 57.790018,362.30782 45.654337,355.9533 35.82428,343.16525 33.109617,330.20078 c -1.556889,-7.43527 -1.556889,-204.96629 0,-212.40156 2.718677,-12.98365 14.042011,-27.322528 26.075981,-33.020345 9.303574,-4.405035 15.756347,-5.14246 39.163739,-4.475648 43.850873,1.24919 85.046793,9.234378 126.150663,24.452343 8.25,3.05441 15.45,5.52999 16,5.50128 0.55,-0.0287 6.85691,-2.29566 14.01535,-5.03767 33.94032,-13.000673 70.86709,-21.062086 110.87987,-24.205975 17.02081,-1.337361 38.20507,-1.287765 44.80556,0.104898 7.92998,1.673178 16.65105,6.366434 22.64928,12.188745 6.90476,6.702252 9.57981,10.952652 12.65079,20.100942 L 448,120.85263 v 85.9258 85.9258 l -2.2738,3.37409 c -3.90301,5.79168 -8.39515,8.16654 -14.51767,7.67504 -5.614,-0.45067 -9.13825,-2.43974 -12.64674,-7.13775 -2.03544,-2.72553 -2.06818,-3.85692 -2.56179,-88.51674 l -0.5,-85.75593 -2.69355,-3.53074 c -5.02037,-6.58076 -7.74394,-7.19506 -28.7728,-6.48969 -40.97562,1.37445 -82.62604,9.37468 -117.03365,22.47987 l -10.5,3.99925 -0.25437,110.59918 C 256.10573,310.23037 256.20896,360 256.47503,360 c 0.26607,0 4.9483,-1.8 10.40496,-4 5.45666,-2.2 11.33038,-4 13.05272,-4 13.57489,0 20.94741,16.23332 12.00043,26.42337 -2.44162,2.78085 -7.00117,4.99509 -25.70068,12.4809 -16.17731,6.47612 -23.8859,9.07577 -26.73246,9.01528 -2.23006,-0.0474 -8.20361,-1.84348 -13.5,-4.05908 z"
     id="path1" />
</svg>
