<?xml version="1.0" encoding="UTF-8" standalone="no"?>
<!-- Created with Inkscape (http://www.inkscape.org/) -->

<svg
   version="1.1"
   id="svg1"
   width="341.33334"
   height="341.33334"
   viewBox="0 0 341.33334 341.33334"
   sodipodi:docname="communityIcon_n2hvyn96zwk81.svg"
   inkscape:version="1.4 (e7c3feb100, 2024-10-09)"
   xmlns:inkscape="http://www.inkscape.org/namespaces/inkscape"
   xmlns:sodipodi="http://sodipodi.sourceforge.net/DTD/sodipodi-0.dtd"
   xmlns="http://www.w3.org/2000/svg"
   xmlns:svg="http://www.w3.org/2000/svg">
  <sodipodi:namedview
     id="namedview1"
     pagecolor="#ffffff"
     bordercolor="#000000"
     borderopacity="0.25"
     inkscape:showpageshadow="2"
     inkscape:pageopacity="0.0"
     inkscape:pagecheckerboard="0"
     inkscape:deskcolor="#d1d1d1"
     inkscape:zoom="2.1855468"
     inkscape:cx="170.66667"
     inkscape:cy="170.66667"
     inkscape:window-width="1920"
     inkscape:window-height="958"
     inkscape:window-x="0"
     inkscape:window-y="0"
     inkscape:window-maximized="1"
     inkscape:current-layer="svg1" />
  <defs
     id="defs1" />
  <path
     id="path7"
     style="fill:#ffffff;fill-opacity:1;stroke-width:0.457551"
     d="M 116.70312 40.722656 C 116.4904 40.722656 107.39355 49.833093 96.488281 60.96875 C 85.583017 72.104407 73.41244 84.516688 69.443359 88.552734 L 62.226562 95.892578 L 62.226562 97.121094 L 62.136719 97.210938 L 62.136719 97.216797 L 62.123047 97.230469 L 62.123047 97.337891 L 62.080078 97.380859 L 62.162109 109.35547 L 62.226562 138.64453 L 62.226562 170.9375 L 62.226562 170.98047 L 62.226562 245.1543 L 62.226562 245.60352 L 62.226562 246.07031 L 80.873047 264.32227 C 108.8311 291.69023 114.39034 297.00263 114.80859 296.74414 C 115.31505 296.43113 115.70151 282.89793 115.98828 255.31445 C 116.21483 233.52322 116.33098 223.56193 116.95898 172.95508 C 117.10635 161.07924 117.33918 151.14009 117.5 148.86914 C 117.5141 148.68137 117.53153 147.87215 117.54492 147.75977 C 117.69498 146.72466 117.95551 146.05163 118.33398 145.74023 C 118.4522 145.68697 118.58603 145.66049 118.71875 145.63086 C 118.83267 145.60748 118.94267 145.57991 119.06445 145.57617 C 119.11919 145.58481 119.17091 145.58657 119.22852 145.60352 C 119.30012 145.6165 119.3826 145.66698 119.45703 145.68945 C 120.00911 145.93771 120.67248 146.50106 121.46875 147.42188 C 123.04932 149.24966 165.95502 213.51689 205.85742 273.82422 C 215.2723 288.0536 223.15947 299.69531 223.38281 299.69531 C 223.60615 299.69531 236.13204 287.41338 251.21875 272.40039 L 278.64844 245.10352 L 278.64844 244.56445 L 278.64844 244.10742 L 278.64844 243.66406 L 278.64844 243.26758 L 278.64844 243.22656 L 278.64844 243.19727 L 278.64844 243.16992 L 278.64844 171.57227 L 278.64844 171.41602 L 278.64844 171.39258 L 278.64844 171.35938 L 278.64844 171.35156 L 278.64844 171.3457 L 278.64844 171.33594 L 278.64844 171.28711 L 278.64844 99.917969 L 278.64844 98.007812 L 278.64844 97.683594 L 260.23242 79.380859 C 234.48729 53.796792 227.01744 46.472285 225.24414 45.074219 L 224.88672 44.71875 L 224.88281 44.789062 C 224.80043 44.740138 224.46389 44.424781 224.44531 44.443359 C 224.19951 44.689165 223.38939 113.77081 223.21094 149.70508 C 223.08997 174.06162 222.65316 195.97427 222.27344 197.83008 C 222.19328 198.06485 222.10952 198.28066 222.00586 198.39453 C 221.74568 198.39092 221.35253 198.22437 220.92773 197.84961 C 219.67996 196.7488 199.87542 166.91155 161.32227 108.04688 C 122.31453 48.488101 117.16818 40.722656 116.70312 40.722656 z " />
</svg>
