<?xml version="1.0" encoding="UTF-8" standalone="no"?>
<!-- Created with Inkscape (http://www.inkscape.org/) -->

<svg
   version="1.1"
   id="svg1"
   width="283"
   height="259"
   viewBox="0 0 283 259"
   sodipodi:docname="Screenshot from 2024-11-11 19-37-12.svg"
   inkscape:version="1.4 (e7c3feb100, 2024-10-09)"
   xmlns:inkscape="http://www.inkscape.org/namespaces/inkscape"
   xmlns:sodipodi="http://sodipodi.sourceforge.net/DTD/sodipodi-0.dtd"
   xmlns="http://www.w3.org/2000/svg"
   xmlns:svg="http://www.w3.org/2000/svg">
  <sodipodi:namedview
     id="namedview1"
     pagecolor="#ffffff"
     bordercolor="#000000"
     borderopacity="0.25"
     inkscape:showpageshadow="2"
     inkscape:pageopacity="0.0"
     inkscape:pagecheckerboard="0"
     inkscape:deskcolor="#d1d1d1"
     inkscape:zoom="2.8957529"
     inkscape:cx="141.58667"
     inkscape:cy="129.5"
     inkscape:window-width="1920"
     inkscape:window-height="958"
     inkscape:window-x="0"
     inkscape:window-y="0"
     inkscape:window-maximized="1"
     inkscape:current-layer="svg1" />
  <defs
     id="defs1" />
  <path
     style="fill:#ffffff"
     d="M 88.454545,224.54545 C 86.907308,222.99822 86,220.94837 86,219 c 0,-1.94837 0.907308,-3.99822 2.454545,-5.54545 C 90.874078,211.03501 91.159371,211 108.45455,211 H 126 v -7.95289 -7.95289 l -35.75,-0.29711 c -39.369442,-0.32719 -38.492841,-0.1938 -45.173077,-6.87403 -6.979792,-6.9798 -6.547364,-2.01288 -6.853342,-78.71811 -0.191295,-47.955536 0.06132,-70.549312 0.820325,-73.368023 1.525154,-5.663989 8.855175,-13.273822 14.70603,-15.267409 4.044458,-1.378085 14.922449,-1.566859 89.178204,-1.547576 94.29979,0.02449 88.54855,-0.391424 95.87325,6.933273 5.27174,5.27174 6.53333,8.644814 7.00313,18.724034 0.41002,8.796642 0.32069,9.286426 -2.14288,11.75 L 241.09091,59 214.79545,59.03543 c -18.70283,0.0252 -26.92598,0.386132 -28.47914,1.25 -1.20104,0.668016 -9.63154,10.66457 -18.73446,22.21457 -14.2485,18.07882 -16.55077,21.48686 -16.55077,24.5 0,3.01218 2.29092,6.4067 16.43678,24.35489 9.04022,11.47019 17.24573,21.46838 18.23446,22.2182 1.41154,1.07047 7.55332,1.37013 28.59313,1.39511 l 26.79546,0.0318 2.57073,2.57073 c 2.46357,2.46357 2.5529,2.95336 2.14288,11.75 -0.46726,10.02465 -1.73747,13.45838 -6.88144,18.60235 -6.68024,6.68023 -5.80364,6.54684 -45.17308,6.87403 L 158,195.09422 V 203.04711 211 h 17.54545 c 17.29518,0 17.58047,0.035 20,2.45455 C 197.09269,215.00178 198,217.05163 198,219 c 0,1.94837 -0.90731,3.99822 -2.45455,5.54545 L 193.09091,227 H 142 90.909091 Z M 191.29241,136.25 c -1.72262,-1.5125 -7.89312,-7.84788 -13.71222,-14.07863 -14.48175,-15.5062 -14.5201,-14.71654 1.54365,-31.787418 15.60701,-16.585496 17.61032,-17.740702 22.42161,-12.929407 4.67839,4.678381 3.59778,7.577288 -7.15165,19.185502 l -9.6062,10.373653 9.6062,10.49786 c 8.10583,8.85822 9.6062,11.01655 9.6062,13.81883 0,3.96062 -3.43461,7.66961 -7.10223,7.66961 -1.36032,0 -3.88274,-1.2375 -5.60536,-2.75 z m 33.62093,1.4682 c -2.57746,-1.97892 -4.12809,-5.72644 -3.4641,-8.37198 0.34062,-1.35712 4.65388,-6.75314 9.58503,-11.99116 4.93115,-5.23802 8.96573,-9.83284 8.96573,-10.21072 0,-0.37788 -4.00588,-5.02147 -8.90195,-10.319091 -4.89608,-5.297625 -9.21193,-10.608689 -9.59079,-11.802365 -1.59749,-5.033241 4.36136,-11.151522 9.32621,-9.57574 2.50615,0.795424 25.18028,24.772196 27.09796,28.654766 2.08488,4.22109 0.61723,6.54 -13.79948,21.80355 -12.81475,13.56746 -15.10203,14.97335 -19.21861,11.81274 z"
     id="path1" />
</svg>
