<?xml version="1.0" encoding="UTF-8" standalone="no"?>
<!-- Created with Inkscape (http://www.inkscape.org/) -->

<svg
   version="1.1"
   id="svg1"
   width="682.66669"
   height="682.66669"
   viewBox="0 0 682.66669 682.66669"
   sodipodi:docname="web development.svg"
   inkscape:version="1.4 (e7c3feb100, 2024-10-09)"
   xmlns:inkscape="http://www.inkscape.org/namespaces/inkscape"
   xmlns:sodipodi="http://sodipodi.sourceforge.net/DTD/sodipodi-0.dtd"
   xmlns="http://www.w3.org/2000/svg"
   xmlns:svg="http://www.w3.org/2000/svg">
  <sodipodi:namedview
     id="namedview1"
     pagecolor="#ffffff"
     bordercolor="#000000"
     borderopacity="0.25"
     inkscape:showpageshadow="2"
     inkscape:pageopacity="0.0"
     inkscape:pagecheckerboard="0"
     inkscape:deskcolor="#d1d1d1"
     inkscape:zoom="1.0986328"
     inkscape:cx="341.33334"
     inkscape:cy="341.33334"
     inkscape:window-width="1920"
     inkscape:window-height="958"
     inkscape:window-x="0"
     inkscape:window-y="0"
     inkscape:window-maximized="1"
     inkscape:current-layer="svg1" />
  <defs
     id="defs1" />
  <path
     style="fill:#ffffff"
     d="M 130.66667,595.99792 C 107.05625,591.88508 82.553106,577.43106 66.672948,558.24901 59.19399,549.21499 49.509822,530.54241 45.798591,518.00002 l -2.367158,-8 -0.421061,-127.00001 -0.421061,-127 H 341.29467 640.00002 l -0.0326,36.33333 c -0.018,20.06144 -0.64795,39.00383 -1.40661,42.29626 -5.21895,22.64903 -23.5614,41.26542 -46.73541,47.4334 l -7.15872,1.90536 -64.12005,0.0158 -64.12005,0.0158 -10.2183,2.6134 c -5.62006,1.43737 -13.06604,4.23413 -16.54662,6.21502 -3.76457,2.14252 -21.21318,18.50403 -43.06998,40.3866 l -36.74166,36.78498 -4.12273,8.66667 c -6.78678,14.26698 -8.73461,29.06216 -5.58334,42.40958 0.8125,3.4414 6.29026,16.3095 12.1728,28.59577 l 10.69553,22.33869 -0.69285,6.14696 c -0.74364,6.5975 -3.6203,11.3702 -9.49905,15.75995 l -3.68152,2.74905 -106.2361,0.18821 c -58.42985,0.10351 -108.93609,-0.28213 -112.23609,-0.85697 z m 326.00001,-0.71278 c -2.2,-1.11749 -5.05807,-3.29022 -6.35126,-4.82831 -1.29319,-1.53808 -11.83075,-12.77008 -23.4168,-24.96 -33.50637,-35.25274 -38.86063,-41.22333 -40.25368,-44.88731 -1.71367,-4.50732 -1.67231,-12.82049 0.0868,-17.44735 1.32565,-3.48672 21.56392,-25.79187 48.94731,-53.94616 6.83868,-7.0312 13.28777,-14.00298 14.33131,-15.49285 2.68384,-3.83171 10.14531,-7.05648 16.3273,-7.05648 14.28871,0 24.33796,18.15926 17.33971,31.33333 -1.16867,2.2 -12.73545,15.28873 -25.70395,29.08606 -12.9685,13.79734 -23.16083,25.49734 -22.64963,26 3.94001,3.87426 37.50141,39.66352 42.32333,45.13283 3.33879,3.78706 6.7547,8.95862 7.59091,11.49237 l 1.52039,4.60682 -1.24355,5.53461 c -0.68395,3.04404 -2.23719,7.05112 -3.45165,8.90462 -5.14044,7.8453 -16.86822,10.85976 -25.39656,6.52782 z m 84.6791,-0.42557 c -9.17263,-4.91933 -13.45068,-19.85944 -8.34576,-29.14567 1.28333,-2.33449 12.68333,-15.09194 25.33333,-28.34989 12.65,-13.25796 23,-24.67775 23,-25.37732 0,-0.69958 -10.81079,-12.67208 -24.02398,-26.60558 -13.21318,-13.93349 -24.61318,-26.88336 -25.33333,-28.77749 -3.60557,-9.48337 0.99662,-22.97261 9.36974,-27.46316 5.48647,-2.94242 13.38627,-3.19795 18.41835,-0.59576 3.34936,1.73202 58.96313,59.53382 67.16908,69.81172 4.31758,5.40775 5.94152,14.28649 3.7999,20.77566 l -1.53971,4.66536 -33.14364,35.16606 c -18.22901,19.34133 -34.72575,35.88691 -36.65943,36.76795 -5.11772,2.33179 -12.75944,1.96256 -18.04455,-0.87188 z M 43.04449,193.00001 l 0.702065,-20.33334 2.238278,-8 C 56.293242,127.82259 85.256696,99.035545 122.66667,88.451889 l 8.66667,-2.451886 h 210 210.00001 l 8.66667,2.413149 c 21.28345,5.926174 42.25839,19.413268 55.99372,36.004518 7.6429,9.23205 17.36902,28.12816 20.71679,40.249 l 2.2096,8 0.70207,20.33334 0.70206,20.33333 H 341.33334 42.342425 Z m 93.92797,-24.95177 c 6.09504,-2.76682 10.4998,-8.62983 11.84951,-15.77242 l 0.82972,-4.39085 -2.27821,-5.96542 c -1.36163,-3.56537 -4.18848,-7.42246 -7.02626,-9.58693 l -4.74803,-3.62151 h -7.49019 -7.49018 l -4.13346,2.94329 c -2.2734,1.61881 -5.24116,4.60881 -6.59501,6.64444 L 107.4288,142 l -0.0255,7.35726 -0.0255,7.35726 3.1792,4.46478 c 3.40603,4.78332 12.00004,9.42881 17.44302,9.42881 1.83334,0 5.87094,-1.15194 8.97246,-2.55987 z m 64,0 c 6.09504,-2.76682 10.4998,-8.62983 11.84951,-15.77242 l 0.82973,-4.39085 -2.27822,-5.96542 c -1.36163,-3.56537 -4.18848,-7.42246 -7.02625,-9.58693 l -4.74804,-3.62151 h -7.49018 -7.49019 l -4.13346,2.94329 c -2.2734,1.61881 -5.24116,4.60881 -6.59501,6.64444 L 171.4288,142 l -0.0255,7.35726 -0.0255,7.35726 3.17921,4.46478 c 3.40602,4.78332 12.00003,9.42881 17.44302,9.42881 1.83333,0 5.87093,-1.15194 8.97245,-2.55987 z m 64,0 c 6.09504,-2.76682 10.4998,-8.62983 11.84951,-15.77242 l 0.82973,-4.39085 -2.27822,-5.96542 c -1.36163,-3.56537 -4.18848,-7.42246 -7.02625,-9.58693 l -4.74804,-3.62151 h -7.49018 -7.49018 l -4.13347,2.94329 c -2.2734,1.61881 -5.24116,4.60881 -6.59501,6.64444 L 235.4288,142 l -0.0255,7.35726 -0.0255,7.35726 3.17921,4.46478 c 3.40603,4.78332 12.00003,9.42881 17.44302,9.42881 1.83333,0 5.87094,-1.15194 8.97245,-2.55987 z"
     id="path1" />
</svg>
